<svg width="69" height="69" viewBox="0 0 69 69" fill="none" xmlns="http://www.w3.org/2000/svg">
<path d="M57.2 68.2H11C4.9 68.2 0 63.2 0 57.2V11C0 4.9 4.9 0 11 0H57.2C63.2 0 68.2 4.9 68.2 11V57.2C68.2 63.3 63.3 68.2 57.2 68.2Z" fill="#45BB8A"/>
<path d="M57.9 40.9L52 38.5V20.4C52 18.9 50.8 17.8 49.4 17.8C47.9 17.8 46.8 19 46.8 20.4V36.3L41.9 34.3V20.4C41.9 18.9 40.7 17.8 39.3 17.8C37.9 17.8 36.7 19 36.7 20.4V32.1L31.8 30.1V20.4C31.8 18.9 30.6 17.8 29.2 17.8C27.8 17.8 26.6 19 26.6 20.4V28L21.7 26V20.5C21.7 19 20.5 17.9 19.1 17.9C17.7 17.9 16.5 19.1 16.5 20.5V23.9L12.6 22.3C11.3 21.7 9.70003 22.4 9.10003 23.7C8.50003 25 9.20003 26.6 10.5 27.2L16.4 29.6V47.4C16.4 48.9 17.6 50 19 50C20.4 50 21.6 48.8 21.6 47.4V31.7L26.5 33.7V47.4C26.5 48.9 27.7 50 29.1 50C30.5 50 31.7 48.8 31.7 47.4V35.9L36.6 37.9V47.4C36.6 48.9 37.8 50 39.2 50C40.6 50 41.8 48.8 41.8 47.4V40L46.7 42V47.3C46.7 48.8 47.9 49.9 49.3 49.9C50.8 49.9 51.9 48.7 51.9 47.3V44.2L55.8 45.8C57.1 46.4 58.7 45.7 59.3 44.4C59.9 43 59.3 41.5 57.9 40.9Z" fill="white"/>
</svg>